# xmcd
#
# Track frame offsets:
#	150
#	15722
#	41282
#	54967
#	75965
#	95042
#	108312
#	129500
#	148700
#	168327
#	184802
#
# Disc length: 2689 seconds
#
# Revision: 2
# Processed by: cddbd v1.5.2PL0 Copyright (c) Steve Scherf et al.
# Submitted via: audiograbber 1.83.01
#
DISCID=840a7f0b
DTITLE=Various Artist - Country's Hottest Faces
DYEAR=1993
DGENRE=
TTITLE0=Tracy Byrd - Don't Take Her She's All I Got
TTITLE1=Vince Gill - Worlds Apart
TTITLE2=Marty Stuart - Honky Tonkin's What I Do Best
TTITLE3=Reba McEntire - Please Come To Boston
TTITLE4=David Lee Murphy - Gettin' Out The Good Stuff
TTITLE5=George Jones - It Ain't Gonna Worry My Mind
TTITLE6=Gary Allan - Wake Up Screamin'
TTITLE7=Trisha Yearwood - Under The Rainbow
TTITLE8=The Mavericks - All You Ever Do Is Bring Me Down
TTITLE9=Mark Chesnutt - Too Cold At Home
TTITLE10=Frazier River - Last Request
EXTD=
EXTT0=
EXTT1=
EXTT2=
EXTT3=
EXTT4=
EXTT5=
EXTT6=
EXTT7=
EXTT8=
EXTT9=
EXTT10=
PLAYORDER=
